<?xml version="1.0" standalone="no"?>
<!DOCTYPE svg PUBLIC "-//W3C//DTD SVG 20010904//EN"
 "http://www.w3.org/TR/2001/REC-SVG-20010904/DTD/svg10.dtd">
<svg version="1.0" xmlns="http://www.w3.org/2000/svg"
 width="500.000000pt" height="500.000000pt" viewBox="0 0 500.000000 500.000000"
 preserveAspectRatio="xMidYMid meet">

<g transform="translate(0.000000,500.000000) scale(0.100000,-0.100000)"
fill="#000000" stroke="none">
<path d="M2360 4415 c-87 -21 -143 -50 -179 -90 -36 -41 -61 -92 -61 -123 0
-15 -16 -23 -82 -41 -46 -12 -122 -37 -171 -55 l-87 -33 -48 24 c-97 50 -215
10 -273 -93 -19 -34 -38 -54 -49 -54 -36 0 -106 -32 -138 -63 -37 -35 -112
-179 -112 -214 0 -12 -9 -27 -21 -33 -25 -14 -79 -97 -79 -122 0 -11 -19 -27
-57 -45 -120 -56 -222 -195 -246 -337 -9 -57 -9 -77 5 -130 16 -60 16 -67 -3
-137 -45 -173 -49 -503 -8 -704 46 -224 159 -479 291 -654 182 -242 458 -464
711 -574 300 -130 519 -174 806 -164 185 6 322 31 488 88 276 94 521 247 723
449 151 151 244 275 324 435 123 247 164 406 177 690 4 110 11 221 15 246 8
62 -10 121 -50 164 -24 25 -36 49 -41 82 -4 26 -18 86 -32 133 -14 47 -31 121
-38 166 -18 116 -55 191 -129 262 -35 34 -80 66 -107 76 -26 10 -52 29 -62 44
-31 52 -203 219 -290 281 -78 57 -86 66 -74 80 50 57 40 150 -22 212 -82 82
-213 52 -253 -58 -7 -18 -14 -33 -18 -33 -7 0 -161 58 -165 62 -1 2 -11 23
-22 49 -44 99 -144 177 -270 209 -90 24 -267 26 -353 5z m270 -101 c113 -7
151 -21 207 -76 70 -69 88 -122 88 -263 -1 -125 -6 -144 -54 -205 l-21 -25 0
170 c0 149 -3 176 -21 215 -11 24 -28 53 -37 63 -39 43 -148 78 -159 51 -10
-25 -132 -18 -197 12 -31 14 -56 28 -56 30 0 14 89 43 120 39 19 -2 78 -7 130
-11z m-285 -58 c12 -18 13 -29 5 -52 -13 -34 -26 -44 -59 -44 -52 0 -82 68
-45 104 24 25 81 21 99 -8z m375 -146 c7 -27 16 -40 28 -40 15 -1 15 -2 -3
-15 -10 -9 -25 -28 -31 -43 l-12 -27 -1 25 c-2 32 -11 46 -36 53 -18 4 -18 5
2 6 18 1 24 9 29 41 4 22 8 40 10 40 2 0 8 -18 14 -40z m660 0 c23 -23 24 -33
10 -60 -30 -56 -109 -38 -110 24 0 50 63 73 100 36z m-876 -21 c63 -50 -2
-141 -75 -104 -25 13 -29 21 -29 55 0 29 6 43 22 54 30 21 50 20 82 -5z m-336
-26 c5 -17 -26 -29 -40 -15 -6 6 -7 15 -3 22 9 14 37 9 43 -7z m-118 -8 c0 -8
-7 -15 -15 -15 -16 0 -20 12 -8 23 11 12 23 8 23 -8z m281 -5 c23 -13 25 -53
3 -74 -20 -21 -30 -20 -54 4 -24 24 -25 38 -3 62 19 21 27 22 54 8z m-666 -36
c0 -15 -6 -18 -29 -16 -37 4 -76 -31 -76 -70 0 -21 -5 -28 -20 -28 -30 0 -24
29 13 71 33 38 84 70 102 65 6 -1 10 -11 10 -22z m286 10 c10 -13 10 -17 -2
-25 -18 -12 -26 -11 -34 1 -8 13 1 40 13 40 5 0 15 -7 23 -16z m1129 -9 c0 -9
7 -18 16 -22 15 -5 15 -8 2 -17 -8 -6 -20 -20 -26 -31 -11 -20 -11 -20 -12 1
0 12 -8 25 -17 29 -17 6 -17 7 0 19 9 7 17 18 17 25 0 6 5 11 10 11 6 0 10 -7
10 -15z m-1340 -55 c10 -19 40 -28 40 -12 0 4 4 13 9 20 7 12 14 11 40 -2 33
-18 37 -26 20 -43 -17 -17 6 -52 31 -46 18 5 20 1 20 -41 0 -38 -3 -44 -16
-39 -10 4 -23 -2 -33 -13 -9 -11 -33 -26 -54 -33 -34 -11 -42 -10 -80 9 -23
12 -45 26 -48 32 -3 5 -15 11 -25 12 -14 2 -19 12 -21 39 -1 33 2 37 23 37 27
0 47 29 34 51 -7 10 -3 19 13 31 28 23 34 22 47 -2z m412 -41 c-1 -13 -2 -47
-2 -76 1 -83 -17 -71 -22 15 -3 42 -3 81 0 85 8 17 27 -1 24 -24z m1162 9 c21
-29 20 -58 -1 -74 -27 -20 -60 -17 -77 8 -20 29 -20 47 1 70 22 25 59 23 77
-4z m-1293 -74 c-10 -66 -63 -174 -87 -174 -21 0 -17 31 4 37 33 8 55 62 58
138 1 38 3 74 3 80 1 5 8 3 16 -5 11 -12 12 -27 6 -76z m699 36 c26 -26 25
-55 -1 -81 -22 -22 -48 -19 -88 12 -20 16 -42 19 -141 19 -92 0 -120 -3 -130
-15 -18 -21 -60 -14 -78 13 -14 21 -13 25 2 40 15 15 37 17 179 14 99 -2 168
1 177 7 24 17 58 13 80 -9z m432 -75 c-3 -54 -1 -89 6 -98 7 -8 7 -18 2 -27
-16 -25 -12 -33 51 -98 45 -46 66 -61 79 -57 10 3 28 0 39 -6 19 -12 19 -13
-6 -26 -25 -13 -29 -11 -100 59 -85 83 -110 127 -92 160 7 14 10 50 6 100 -4
60 -2 78 8 78 10 0 12 -19 7 -85z m-1732 4 c7 -30 35 -36 61 -13 19 17 21 17
45 -8 22 -22 24 -28 13 -45 -16 -27 -6 -51 23 -55 16 -2 24 -10 26 -28 3 -37
-8 -48 -55 -53 l-41 -5 5 33 c5 28 0 39 -25 65 -34 34 -50 37 -91 15 -32 -16
-47 -65 -31 -95 15 -28 12 -31 -15 -18 -14 6 -25 15 -25 20 0 4 -9 8 -20 8
-17 0 -20 7 -20 44 0 40 2 43 23 39 32 -6 63 38 47 66 -15 28 -13 30 23 46 40
18 50 15 57 -16z m2032 -122 c0 -69 -3 -131 -7 -137 -3 -5 -16 -15 -28 -22
-21 -10 -21 -10 -7 7 17 21 19 31 26 142 4 51 1 89 -6 102 -12 23 -5 44 12 39
7 -3 11 -49 10 -131z m-390 73 c8 -1 7 -5 -4 -14 -10 -7 -18 -19 -18 -26 0 -8
-10 -3 -22 11 l-23 24 20 20 c19 19 20 19 27 3 4 -10 13 -18 20 -18z m268 15
c0 -20 5 -25 25 -25 l25 0 -29 -57 c-16 -32 -36 -67 -45 -78 -14 -19 -15 -17
-16 32 0 43 -3 52 -20 55 -18 3 -18 6 10 51 33 52 50 60 50 22z m-644 -71
c268 -56 488 -207 651 -449 58 -86 80 -134 113 -241 58 -189 63 -369 15 -560
-35 -140 -90 -246 -173 -334 l-67 -71 -67 -3 c-81 -4 -145 -33 -205 -92 -53
-53 -73 -117 -73 -234 0 -92 -8 -110 -47 -110 -37 0 -46 32 -41 149 7 171 -5
157 314 363 136 88 197 173 246 345 20 67 23 101 23 238 0 181 -11 236 -75
371 -96 207 -244 355 -453 454 -105 50 -179 69 -297 77 -251 15 -488 -81 -675
-272 -219 -225 -307 -534 -238 -840 36 -162 120 -291 230 -351 212 -116 293
-177 321 -243 19 -45 28 -225 13 -263 -7 -20 -18 -28 -34 -28 -40 0 -47 17
-47 125 0 138 -16 188 -83 257 -76 80 -105 92 -212 94 l-89 1 -44 49 c-126
143 -192 340 -192 578 0 123 11 190 52 316 38 117 61 164 129 260 90 127 235
257 360 320 59 31 197 79 269 94 91 20 280 20 376 0z m926 -11 c27 -24 24 -71
-7 -85 -38 -17 -75 3 -75 41 0 53 45 78 82 44z m-2164 -5 c17 -17 15 -55 -3
-62 -23 -8 -75 14 -75 33 0 23 20 41 45 41 12 0 26 -5 33 -12z m317 -98 c4 -6
-15 -10 -49 -10 -31 0 -56 5 -56 10 0 6 22 10 49 10 28 0 53 -4 56 -10z m-569
-70 c19 0 18 -16 -1 -24 -9 -3 -19 -16 -24 -28 l-8 -23 -8 25 c-4 14 -15 30
-24 37 -15 11 -15 12 0 13 10 0 20 12 24 28 l7 27 10 -27 c5 -16 16 -28 24
-28z m534 -16 c0 -8 -7 -14 -15 -14 -15 0 -21 21 -9 33 10 9 24 -2 24 -19z
m995 -34 c92 -29 194 -83 251 -133 48 -42 104 -140 104 -182 0 -29 -40 -75
-65 -75 -20 0 -65 44 -65 64 0 8 5 26 11 40 10 22 8 28 -17 50 -162 144 -343
197 -555 163 -122 -20 -212 -60 -306 -136 -59 -48 -61 -52 -51 -79 15 -39 4
-76 -29 -91 -23 -10 -30 -9 -52 7 -39 28 -39 72 -1 149 26 51 45 74 93 110 93
68 211 117 332 137 17 2 86 3 155 1 93 -2 143 -9 195 -25z m1025 -4 c0 -31 3
-34 37 -41 30 -5 40 -3 53 13 16 19 16 19 46 -1 41 -30 45 -39 28 -64 -13 -21
-13 -26 2 -48 19 -29 15 -28 49 -15 24 9 27 7 40 -23 25 -60 23 -70 -13 -79
-24 -7 -32 -13 -28 -24 3 -9 6 -24 6 -34 0 -13 9 -20 28 -22 22 -2 28 -9 30
-32 5 -44 -14 -73 -50 -74 -46 -1 -59 17 -46 64 29 108 -30 231 -137 280 -98
46 -216 20 -285 -64 l-34 -40 -28 36 c-34 42 -34 44 -5 37 16 -4 29 0 41 14
18 20 18 22 3 39 -24 26 -21 34 19 60 l37 24 22 -24 c18 -19 30 -24 54 -20 28
4 31 8 31 38 l0 34 50 0 50 0 0 -34z m-2123 -36 c18 0 17 -5 -12 -36 -18 -20
-25 -23 -25 -11 0 9 -10 22 -22 28 l-22 12 22 8 c13 5 22 17 23 31 1 21 2 21
12 -4 6 -16 17 -28 24 -28z m-327 -73 c0 -39 3 -44 32 -55 29 -11 34 -10 60
15 l29 27 46 -47 47 -47 -32 -26 c-34 -29 -35 -51 -4 -86 16 -19 17 -13 -36
-183 -3 -11 -5 -27 -4 -35 2 -13 1 -13 -7 -1 -7 11 -16 6 -42 -24 -19 -21 -52
-46 -74 -56 -81 -37 -200 -16 -267 48 l-27 26 -26 -32 c-32 -38 -42 -39 -57
-6 -10 22 -8 29 11 49 20 21 21 28 11 65 -10 39 -12 41 -50 41 -40 0 -40 0
-40 39 0 21 3 53 6 71 7 31 8 32 48 26 39 -5 42 -4 57 28 14 32 14 35 -8 60
-28 33 -21 50 33 91 l37 28 29 -36 c27 -33 31 -35 56 -24 34 15 42 25 42 60 0
27 1 27 65 27 l65 0 0 -43z m1244 -8 c30 -24 35 -72 10 -107 -12 -17 -25 -22
-59 -22 -39 0 -46 4 -60 30 -21 41 -19 67 10 95 30 30 64 32 99 4z m1242 2
c52 -24 80 -53 110 -116 24 -51 31 -118 14 -145 -8 -12 -15 -9 -45 20 -19 18
-35 43 -35 54 0 77 -113 141 -183 105 -34 -18 -77 -61 -77 -78 0 -11 -8 -6
-25 14 -39 48 -40 63 -8 97 61 65 167 86 249 49z m-1406 -80 c5 -11 10 -31 10
-45 0 -21 -7 -27 -42 -36 -82 -21 -102 -35 -200 -134 l-98 -101 0 -151 c0
-147 1 -151 23 -161 18 -8 30 -5 64 18 23 16 46 29 50 29 5 0 17 -16 26 -35
l16 -34 -53 -33 c-29 -18 -60 -45 -69 -60 -34 -59 -114 -44 -131 24 -7 29 -6
42 7 62 15 22 15 28 2 53 -8 15 -15 43 -15 61 0 30 -2 32 -34 32 -111 0 -173
85 -156 213 8 55 51 160 83 202 14 18 15 17 15 -19 0 -23 8 -50 21 -67 l21
-28 -25 -53 c-47 -101 -26 -188 45 -188 l30 0 0 104 c0 100 1 104 23 110 13 3
58 44 101 91 80 87 135 127 209 150 57 18 65 18 77 -4z m315 5 c72 -22 146
-77 211 -155 36 -45 70 -76 91 -83 l33 -12 0 -103 0 -103 25 0 c14 0 37 12 52
26 22 22 25 32 21 73 -3 26 -15 68 -27 93 -23 44 -23 46 -5 73 10 15 21 46 24
69 l6 41 43 -86 c92 -185 54 -333 -90 -347 l-47 -4 -6 -46 c-3 -25 -11 -50
-16 -57 -7 -8 -6 -21 5 -41 18 -35 18 -46 4 -78 -26 -55 -99 -56 -134 -2 -10
14 -39 39 -66 56 -27 16 -49 32 -49 35 0 12 31 65 38 65 4 0 26 -13 50 -29 37
-24 47 -27 68 -17 24 11 24 12 24 162 l0 151 -108 106 c-89 86 -117 107 -153
117 -91 23 -99 31 -79 84 11 30 20 31 85 12z m1039 -30 c59 -24 98 -96 60
-110 -48 -18 -191 4 -201 31 -8 20 25 63 60 78 40 18 41 18 81 1z m-1204 -103
c0 -28 4 -33 35 -42 90 -24 184 -107 206 -180 11 -36 15 -40 36 -35 37 10 73
-20 73 -60 0 -41 -21 -60 -65 -59 -29 1 -34 -3 -43 -36 -6 -20 -25 -57 -41
-82 -24 -38 -43 -53 -100 -80 l-70 -34 0 -242 -1 -243 -60 0 -60 0 0 233 c0
127 -4 237 -8 244 -4 7 -23 19 -42 27 -65 27 -116 73 -144 127 -14 29 -26 61
-26 71 0 14 -8 17 -37 16 -39 -1 -73 27 -73 62 0 30 49 62 82 55 22 -5 28 -3
28 10 0 28 48 112 81 139 36 31 92 60 132 70 23 5 27 12 27 39 0 32 2 33 35
33 32 -1 35 -3 35 -33z m1570 -225 c-16 -17 -20 -19 -20 -6 0 9 -6 19 -12 22
-10 5 -10 7 0 12 6 3 12 13 12 22 0 13 4 11 20 -6 l21 -22 -21 -22z m78 -150
c9 -9 12 -71 12 -219 0 -232 -3 -241 -65 -237 -19 1 -31 6 -29 10 6 9 -71 11
-348 8 -122 -1 -198 2 -198 8 0 17 71 22 328 22 l252 0 0 185 0 185 -234 0
c-256 0 -326 6 -326 26 0 17 49 20 356 22 175 1 243 -1 252 -10z m-3308 -8
c12 -7 15 -32 15 -117 -1 -254 -5 -353 -15 -353 -6 0 -10 47 -10 120 0 100 -2
118 -15 114 -21 -8 -28 32 -23 134 5 108 13 125 48 102z m977 -22 c13 -12 23
-32 23 -44 0 -25 -35 -64 -58 -64 -17 0 -11 -20 11 -34 12 -8 21 -6 35 7 18
16 20 16 34 0 28 -34 59 -96 54 -109 -8 -20 -29 -17 -44 6 -7 12 -16 19 -21
16 -9 -6 -50 35 -77 79 -10 16 -29 39 -41 52 -29 28 -29 60 -1 90 27 29 55 29
85 1z m1393 -5 c24 -31 20 -66 -11 -98 -11 -11 -40 -48 -65 -82 -47 -64 -80
-80 -79 -37 0 26 25 59 25 34 0 -7 3 -11 6 -8 3 4 1 15 -5 26 -6 11 -8 28 -5
36 5 14 8 14 21 1 18 -19 47 -19 62 -1 9 11 4 18 -24 35 -45 26 -49 69 -9 100
36 28 58 26 84 -6z m-2250 -73 c-13 -14 -16 -14 -26 -1 -8 11 -9 20 -1 32 9
15 11 15 26 0 14 -14 14 -18 1 -31z m2905 10 c11 -13 16 -30 13 -50 -3 -16 -1
-30 3 -30 4 0 24 -15 43 -34 25 -23 36 -42 36 -61 0 -33 -25 -65 -51 -65 -10
0 -23 -8 -28 -17 -10 -17 -10 -17 -11 0 0 15 -12 17 -101 17 -69 0 -98 3 -94
11 4 6 23 8 49 4 l41 -6 -27 16 c-16 9 -28 17 -28 20 0 5 54 -11 78 -24 28
-15 132 -7 143 10 19 30 9 58 -32 91 -30 24 -39 37 -35 53 7 27 -19 65 -45 65
-11 0 -28 -14 -39 -32 -19 -31 -20 -32 -20 -9 0 55 68 82 105 41z m-2475 -35
c0 -8 -4 -15 -10 -15 -5 0 -10 7 -10 15 0 8 5 15 10 15 6 0 10 -7 10 -15z
m-100 -30 c0 -13 -16 -15 -107 -13 -74 2 -108 7 -111 16 -3 9 23 12 107 12 93
0 111 -2 111 -15z m2407 -31 c3 -9 0 -20 -8 -25 -9 -5 2 -6 26 -2 22 3 51 15
64 27 l23 21 -7 -24 c-6 -20 -4 -23 10 -18 11 5 15 3 13 -5 -6 -17 -111 -23
-150 -9 -35 12 -55 6 -63 -20 -8 -25 22 -72 40 -65 9 3 12 0 8 -10 -7 -18 -16
-18 -41 4 -43 37 -33 90 23 123 38 22 54 23 62 3z m-627 -4 c0 -5 -5 -10 -11
-10 -5 0 -7 5 -4 10 3 6 8 10 11 10 2 0 4 -4 4 -10z m-1857 -9 c44 -1 57 -5
57 -16 0 -12 -16 -15 -83 -15 -46 0 -87 3 -90 7 -12 11 12 30 35 27 13 -1 49
-3 81 -3z m2648 -8 c13 -16 12 -17 -3 -4 -17 13 -22 21 -14 21 2 0 10 -8 17
-17z m-2471 -12 c15 -30 13 -284 -2 -279 -9 3 -14 41 -16 133 -1 71 -7 134
-12 140 -10 12 -4 25 11 25 5 0 13 -9 19 -19z m950 -21 c12 -8 11 -13 -7 -38
-17 -23 -21 -38 -16 -66 8 -50 -15 -82 -62 -88 -20 -2 -44 1 -53 8 -9 6 -43
13 -75 16 -32 3 -62 9 -67 14 -6 6 13 8 55 6 63 -4 65 -4 65 20 0 36 27 66 66
74 25 4 39 15 50 35 16 31 21 34 44 19z m305 -20 c9 -17 24 -30 34 -30 29 0
68 -37 75 -71 6 -30 6 -31 59 -27 32 2 54 -1 54 -7 0 -6 -28 -12 -61 -13 -34
-2 -65 -8 -70 -13 -6 -5 -26 -9 -46 -9 -54 0 -86 42 -68 89 6 17 3 32 -13 58
-18 29 -19 37 -8 44 22 14 27 11 44 -21z m-776 -13 c0 -9 -2 -8 -6 1 -2 6 -10
9 -15 6 -7 -4 -8 -2 -4 5 9 13 26 5 25 -12z m-1049 -22 c0 -19 -4 -35 -10 -35
-5 0 -10 16 -10 35 0 19 5 35 10 35 6 0 10 -16 10 -35z m420 26 c0 -12 -26
-21 -60 -21 -34 0 -60 9 -60 21 0 5 27 9 60 9 33 0 60 -4 60 -9z m714 -25 c10
-16 12 -27 6 -31 -6 -4 -9 -1 -8 7 2 7 -2 12 -9 11 -8 -2 -10 4 -6 14 5 12 3
14 -7 8 -9 -5 -11 -4 -6 3 10 16 11 16 30 -12z m-980 -12 c3 -9 6 -56 6 -105
0 -89 -6 -101 -36 -81 -14 9 -24 150 -13 180 10 26 34 29 43 6z m2006 2 c0 -2
-8 -10 -17 -17 -16 -13 -17 -12 -4 4 13 16 21 21 21 13z m37 -13 c-13 -3 -17
-11 -14 -23 3 -11 -3 -26 -12 -34 -16 -15 -17 -13 -17 15 1 30 19 49 46 48 10
-1 9 -3 -3 -6z m-1001 -45 l29 -32 -29 22 c-15 12 -32 19 -37 16 -5 -3 -6 2
-3 10 8 20 5 21 40 -16z m-881 -18 c-5 -8 -11 -8 -17 -2 -6 6 -7 16 -3 22 5 8
11 8 17 2 6 -6 7 -16 3 -22z m1775 -4 c0 -2 -7 -7 -16 -10 -8 -3 -12 -2 -9 4
6 10 25 14 25 6z m-1666 -82 c-8 -6 -14 -17 -14 -24 0 -7 -8 -2 -18 10 -17 21
-17 25 -3 39 14 14 18 14 32 1 14 -13 14 -17 3 -26z m-144 6 c0 -5 -2 -10 -4
-10 -3 0 -8 5 -11 10 -3 6 -1 10 4 10 6 0 11 -4 11 -10z m46 -27 c-6 -6 -36 9
-36 18 0 5 9 4 20 -3 10 -7 18 -14 16 -15z m2419 -3 c3 -5 3 -21 -1 -35 -5
-21 -12 -25 -33 -23 -26 3 -38 26 -27 54 6 16 52 19 61 4z m85 -3 c0 -4 0 -18
0 -32 0 -20 -5 -25 -25 -25 -22 0 -25 4 -25 35 0 32 2 35 25 32 14 -2 25 -6
25 -10z m100 -22 c0 -32 -2 -35 -30 -35 -28 0 -30 3 -30 35 0 32 2 35 30 35
28 0 30 -3 30 -35z m88 -3 c3 -31 2 -33 -25 -30 -17 2 -29 10 -31 21 -6 30 6
49 30 45 18 -2 24 -11 26 -36z m95 30 c3 -4 3 -20 0 -35 -5 -23 -10 -28 -32
-25 -26 3 -38 26 -27 54 6 15 51 20 59 6z m97 -27 c0 -32 -2 -35 -30 -35 -28
0 -30 3 -30 35 0 32 2 35 30 35 28 0 30 -3 30 -35z m90 0 c0 -32 -2 -35 -30
-35 -28 0 -30 3 -30 35 0 32 2 35 30 35 28 0 30 -3 30 -35z m-1985 -59 c13
-19 13 -28 4 -50 -22 -46 -76 -46 -98 0 -17 37 8 74 49 74 20 0 35 -8 45 -24z
m761 -1 c15 -23 15 -27 0 -49 -30 -47 -85 -39 -99 14 -14 54 68 83 99 35z
m670 -21 c-3 -9 -6 -22 -6 -30 0 -19 -46 -18 -54 2 -13 34 -7 44 30 44 29 0
35 -3 30 -16z m90 0 c-3 -9 -6 -22 -6 -30 0 -8 -10 -14 -25 -14 -21 0 -25 5
-25 30 0 27 3 30 31 30 24 0 30 -3 25 -16z m92 -11 c-2 -22 -9 -29 -30 -31
-25 -3 -28 0 -28 27 0 28 3 31 31 31 27 0 30 -3 27 -27z m92 -4 c0 -27 -3 -30
-27 -27 -22 2 -29 9 -31 31 -3 24 0 27 27 27 28 0 31 -3 31 -31z m96 15 c-3
-9 -6 -22 -6 -30 0 -19 -46 -18 -54 2 -13 34 -7 44 30 44 29 0 35 -3 30 -16z
m94 -14 c0 -27 -3 -30 -30 -30 -27 0 -30 3 -30 30 0 27 3 30 30 30 27 0 30 -3
30 -30z m90 0 c0 -27 -3 -30 -30 -30 -27 0 -30 3 -30 30 0 27 3 30 30 30 27 0
30 -3 30 -30z m-2586 -6 c14 -13 16 -43 14 -192 -1 -97 -3 -145 -5 -107 -5 98
-6 101 -46 76 -51 -31 -84 -42 -84 -26 0 7 8 10 19 7 26 -6 22 13 -4 26 -21
11 -21 11 6 5 17 -3 27 -2 23 4 -3 5 -2 15 4 23 7 13 9 12 9 -2 0 -10 3 -18 8
-18 4 0 6 23 5 50 -1 28 2 50 7 50 6 0 10 5 10 11 0 6 -7 8 -15 5 -42 -17 -46
-15 -12 5 40 25 49 40 17 32 -11 -3 -17 -10 -13 -16 4 -6 0 -8 -10 -4 -9 3
-22 1 -29 -6 -8 -7 -18 -13 -24 -14 -27 -5 -143 -71 -136 -77 4 -5 0 -7 -8 -6
-21 4 -68 -15 -163 -66 -45 -25 -94 -50 -109 -55 -16 -6 -26 -14 -24 -17 2 -4
-8 -8 -23 -9 -25 -2 -30 4 -49 50 -18 42 -22 73 -22 151 0 147 -27 136 336
136 262 0 305 -2 318 -16z m2569 -60 c21 -4 27 -11 27 -30 0 -13 -6 -24 -12
-24 -7 0 -169 -1 -361 -3 -259 -1 -347 1 -347 10 0 6 -3 18 -6 27 -5 12 5 16
48 18 95 6 622 7 651 2z m-2713 -59 c-7 -9 -15 -13 -19 -10 -3 3 1 10 9 15 21
14 24 12 10 -5z m1304 -30 c7 -20 -3 -44 -25 -55 -24 -13 -385 -13 -410 0 -18
10 -26 50 -12 63 3 4 104 7 224 7 183 0 218 -2 223 -15z m-1347 -1 c-3 -3 -12
-4 -19 -1 -8 3 -5 6 6 6 11 1 17 -2 13 -5z m-26 -21 c13 -15 12 -15 -8 -4 -24
12 -29 21 -14 21 5 0 15 -7 22 -17z m499 3 c0 -23 22 -31 32 -12 5 9 14 14 19
10 6 -4 5 -11 -2 -21 -10 -12 -10 -16 2 -24 20 -12 27 -11 37 7 5 9 14 14 21
10 14 -9 15 -36 1 -36 -5 0 -10 -9 -10 -20 0 -15 7 -20 25 -20 16 0 25 -6 25
-15 0 -8 -9 -15 -20 -15 -14 0 -20 -7 -20 -22 -1 -29 -22 -58 -43 -58 -9 0
-19 -4 -22 -10 -11 -17 -78 -11 -113 10 -25 15 -37 18 -52 10 -13 -7 -21 -7
-25 0 -3 6 6 15 20 20 33 12 28 34 -8 38 -15 2 -27 10 -27 17 0 11 8 13 30 9
23 -5 30 -3 30 10 0 8 -11 18 -25 22 -25 6 -33 28 -15 39 5 3 19 1 31 -5 26
-15 37 -5 21 20 -16 27 -15 30 8 30 11 0 20 -7 20 -15 0 -8 7 -15 15 -15 9 0
15 9 15 25 0 16 6 25 15 25 8 0 15 -6 15 -14z m1455 -47 c90 -23 165 -126 165
-227 0 -43 -29 -111 -65 -154 -20 -24 -25 -40 -25 -84 0 -41 -4 -54 -15 -54
-11 0 -15 11 -15 39 0 51 12 83 50 129 30 38 48 103 42 154 -3 26 -5 24 -30
-24 -27 -51 -92 -101 -118 -91 -14 5 -24 -51 -24 -144 l0 -73 35 0 c24 0 35
-5 35 -15 0 -12 -18 -15 -100 -15 -82 0 -100 3 -100 15 0 11 12 15 46 15 l46
0 -4 108 c-3 102 -4 107 -26 110 -12 2 -27 12 -32 23 -6 10 -17 19 -25 19 -26
0 -16 -30 15 -48 30 -17 30 -17 30 -109 l0 -93 -35 0 -35 0 0 53 c0 42 -5 58
-21 73 -95 86 -99 256 -7 341 31 29 106 63 141 63 16 0 48 -5 72 -11z m623
-10 c53 -26 93 -83 100 -144 4 -38 2 -44 -10 -40 -9 4 -18 24 -21 47 -10 76
-100 137 -177 119 -141 -32 -163 -214 -33 -276 23 -11 42 -23 43 -27 0 -18
-50 -6 -87 21 -68 49 -92 145 -54 219 47 92 146 126 239 81z m-367 -40 c3 -19
11 -44 17 -56 14 -25 15 -43 4 -43 -5 0 -14 18 -21 41 -7 22 -19 43 -27 46
-15 5 -19 34 -7 47 14 13 28 -1 34 -35z m-2153 -20 c-7 -5 -21 -6 -32 -3 -13
4 -16 3 -11 -6 5 -9 4 -11 -4 -6 -18 12 -4 23 29 23 20 0 26 -3 18 -8z m1286
-21 c8 -13 8 -23 0 -35 -10 -16 -33 -18 -197 -21 -178 -2 -187 -2 -197 18 -8
14 -8 26 0 40 10 20 19 20 197 18 164 -3 187 -5 197 -20z m1206 5 c55 -32 66
-102 25 -151 -46 -55 -114 -50 -158 10 -63 86 41 196 133 141z m-309 -150 c-8
-14 -10 -9 -10 27 1 42 1 43 10 18 7 -18 7 -33 0 -45z m-913 0 c11 -22 5 -44
-16 -60 -20 -16 -304 -18 -333 -3 -19 10 -27 59 -12 73 3 4 84 7 179 7 155 0
174 -2 182 -17z m-1030 -28 c7 -3 12 -15 10 -27 l-3 -23 -282 -3 -282 -2 -26
27 -25 28 26 5 c33 6 564 1 582 -5z m1928 -56 c-8 -19 -15 -26 -15 -17 -1 23
20 75 26 62 2 -7 -3 -27 -11 -45z m-16 -59 c0 -11 -6 -20 -14 -20 -18 0 -29
16 -21 30 11 18 35 11 35 -10z m-622 -2 c7 -7 12 -27 12 -45 0 -32 -1 -33 -41
-33 -33 0 -40 3 -35 16 3 9 6 26 6 39 0 21 7 27 41 34 3 0 10 -4 17 -11z m809
-10 c26 -24 29 -38 10 -38 -7 0 -91 -78 -186 -174 -172 -172 -174 -174 -198
-159 -13 9 -22 20 -20 26 3 10 359 367 366 367 3 0 15 -10 28 -22z m-1682 -33
c63 -24 77 -38 48 -50 -15 -6 -99 -17 -140 -18 -7 0 -13 -4 -13 -9 0 -14 -722
-9 -741 5 -25 20 -31 48 -14 73 l15 24 373 2 c204 2 381 1 392 -1 11 -2 47
-14 80 -26z m722 -6 c15 0 14 -2 -4 -11 -13 -6 -23 -18 -24 -27 0 -14 -1 -14
-6 -1 -4 8 -13 20 -21 26 -13 9 -13 12 2 17 9 4 16 14 17 24 0 14 2 13 9 -4 5
-13 17 -23 27 -24z m-493 -15 c-8 -6 -14 -16 -14 -22 0 -6 -11 -1 -24 11 -24
21 -24 22 -5 29 10 4 19 12 19 18 0 5 8 2 19 -7 15 -15 16 -20 5 -29z m362
-84 c14 0 13 -4 -7 -22 -24 -23 -24 -23 -40 -3 -14 16 -14 21 -3 33 8 7 14 19
15 25 0 7 4 2 9 -10 5 -13 17 -23 26 -23z m-261 13 c10 -13 10 -19 -1 -30 -16
-17 -21 -16 -28 2 -5 15 2 45 11 45 3 0 11 -8 18 -17z m563 -20 c2 -9 -11 -13
-45 -14 -26 0 -42 -3 -35 -6 10 -4 10 -8 1 -19 -9 -12 -4 -14 32 -14 l44 0 0
-133 0 -133 -27 4 c-19 3 -29 -2 -38 -19 -23 -42 -33 6 -31 150 1 75 1 147 1
160 0 12 3 27 6 33 8 13 87 5 92 -9z m377 -62 c-16 -15 -177 -18 -182 -3 -4 9
19 12 93 12 58 0 94 -4 89 -9z m-515 -11 c0 -5 -25 -10 -55 -10 -30 0 -55 5
-55 10 0 6 25 10 55 10 30 0 55 -4 55 -10z m240 0 c0 -5 -18 -10 -41 -10 -24
0 -38 4 -34 10 3 6 22 10 41 10 19 0 34 -4 34 -10z m-778 -26 c85 -30 106 -45
63 -44 -17 1 -78 -1 -137 -3 -60 -2 -108 -1 -108 2 0 3 -159 5 -353 3 l-353
-2 -34 35 -34 35 441 0 442 0 73 -26z m300 -21 c35 -31 51 -73 45 -119 -6 -55
-42 -107 -68 -99 -10 4 -28 3 -39 0 -18 -6 -20 -15 -20 -116 l0 -109 -25 0
-25 0 0 103 c0 101 -1 104 -25 115 -26 12 -65 78 -65 111 0 11 9 22 20 25 71
21 67 21 48 -1 -42 -47 -1 -113 69 -113 46 0 93 45 93 90 0 48 -55 100 -106
101 -51 1 -83 12 -64 24 44 27 126 21 162 -12z m726 -5 c-3 -7 -10 -13 -16
-12 -7 1 -34 2 -62 3 -75 2 -61 21 16 21 48 0 65 -3 62 -12z m-483 -58 c-3 -5
-37 -10 -76 -10 -39 0 -69 4 -69 10 0 6 32 10 76 10 47 0 73 -4 69 -10z m325
0 c0 -6 -33 -10 -80 -10 -47 0 -80 4 -80 10 0 6 33 10 80 10 47 0 80 -4 80
-10z m120 -16 c0 -2 -13 -4 -30 -4 -16 0 -30 4 -30 8 0 5 14 7 30 4 17 -2 30
-6 30 -8z m91 -36 c11 -11 19 -22 19 -23 0 -2 -15 -14 -32 -27 -37 -28 -78
-44 -78 -30 0 11 60 102 67 102 3 0 14 -10 24 -22z m-1251 -48 c11 -11 20 -28
20 -37 0 -20 -28 -53 -45 -53 -7 0 -16 -10 -20 -22 -6 -22 -8 -21 -18 10 -12
39 2 55 41 49 25 -5 29 10 9 37 -10 13 -24 17 -67 14 -54 -3 -54 -3 -63 -41
l-9 -38 -67 3 c-64 3 -66 4 -69 31 l-3 27 -115 0 c-69 0 -114 4 -114 10 0 6
47 10 120 10 l121 0 6 -30 c5 -28 8 -30 54 -30 45 0 49 2 55 28 11 45 23 52
85 52 46 0 64 -5 79 -20z m1003 -17 c-24 -2 -62 -2 -85 0 -24 2 -5 4 42 4 47
0 66 -2 43 -4z m-331 -75 l33 -12 -32 -13 c-22 -8 -36 -24 -44 -48 l-13 -36
-11 33 c-7 21 -23 39 -43 49 l-33 17 31 11 c21 7 36 21 43 40 l11 30 13 -30
c8 -19 24 -34 45 -41z m-512 37 c0 -7 12 -22 27 -33 25 -19 26 -20 6 -26 -11
-3 -26 -19 -33 -34 l-13 -27 -9 27 c-5 15 -18 30 -29 33 -25 8 -24 18 4 30 12
6 23 20 25 33 4 23 22 21 22 -3z m856 -16 c10 -17 -13 -36 -27 -22 -12 12 -4
33 11 33 5 0 12 -5 16 -11z m128 2 c3 -5 -1 -11 -9 -14 -9 -4 -12 -1 -8 9 6
16 10 17 17 5z m-304 -87 c0 -17 -7 -25 -24 -30 -32 -8 -46 2 -46 30 0 30 5
33 40 28 24 -3 30 -9 30 -28z"/>
<path d="M1711 3863 c-24 -30 -20 -58 11 -85 27 -23 49 -23 82 3 33 26 37 83
7 99 -36 19 -78 12 -100 -17z m80 -9 c17 -21 0 -49 -31 -49 -31 0 -48 28 -31
49 8 9 21 16 31 16 10 0 23 -7 31 -16z"/>
<path d="M3567 3674 c-16 -16 -6 -35 16 -32 12 2 22 10 22 18 0 16 -26 25 -38
14z"/>
<path d="M1020 3010 c0 -20 28 -64 57 -92 85 -81 211 -74 291 16 43 49 40 58
-9 33 -62 -31 -170 -34 -240 -8 -30 12 -65 30 -77 41 -12 12 -22 16 -22 10z"/>
<path d="M2357 2786 c3 -18 0 -43 -7 -55 -34 -64 37 -121 150 -121 75 0 117
18 165 71 36 41 38 59 6 59 -28 0 -43 24 -35 57 l7 28 -24 -22 c-24 -21 -100
-49 -129 -46 -8 1 -22 -3 -31 -8 -12 -6 -19 -5 -21 3 -3 9 -6 9 -12 0 -4 -7
-2 -12 4 -12 6 0 8 -5 4 -11 -4 -8 1 -9 17 -4 20 5 21 4 9 -5 -12 -10 -11 -11
6 -7 12 2 28 1 35 -4 27 -17 -42 -9 -71 7 -29 18 -60 62 -60 88 0 9 -4 16 -9
16 -6 0 -7 -15 -4 -34z m225 -58 c-7 -7 -12 -8 -12 -2 0 6 3 14 7 17 3 4 9 5
12 2 2 -3 -1 -11 -7 -17z m-57 -6 c-3 -3 -11 0 -18 7 -9 10 -8 11 6 5 10 -3
15 -9 12 -12z"/>
<path d="M4130 2345 c-16 -9 -19 -14 -9 -15 8 0 24 7 35 15 24 18 7 19 -26 0z"/>
<path d="M3090 2545 c0 -19 19 -40 27 -30 5 6 6 9 4 8 -2 -2 -10 5 -17 15 -7
9 -13 13 -14 7z"/>
<path d="M3013 2421 c0 -11 5 -18 9 -15 4 3 5 11 1 19 -7 21 -12 19 -10 -4z"/>
<path d="M1835 1902 c-52 -11 -75 -81 -37 -115 44 -40 122 -9 122 47 0 52 -33
78 -85 68z m50 -42 c10 -32 -11 -50 -44 -39 -21 7 -28 16 -26 32 3 29 1 27 34
27 21 0 32 -6 36 -20z"/>
<path d="M3799 1821 c-35 -35 -37 -71 -6 -105 34 -38 75 -38 112 -1 35 35 33
76 -6 109 -40 34 -64 33 -100 -3z m51 -61 c5 0 10 6 13 13 3 9 8 9 16 1 17
-16 2 -44 -24 -44 -33 0 -51 25 -34 47 13 15 14 15 17 0 2 -10 7 -17 12 -17z"/>
<path d="M1132 1658 c3 -8 19 -12 39 -12 19 1 71 2 117 3 47 1 82 5 82 11 0 6
-47 10 -121 10 -92 0 -120 -3 -117 -12z"/>
<path d="M1573 1453 c15 -2 37 -2 50 0 12 2 0 4 -28 4 -27 0 -38 -2 -22 -4z"/>
<path d="M2908 1193 c6 -2 18 -2 25 0 6 3 1 5 -13 5 -14 0 -19 -2 -12 -5z"/>
</g>
</svg>
