<?xml version="1.0" standalone="no"?>
<!DOCTYPE svg PUBLIC "-//W3C//DTD SVG 20010904//EN"
 "http://www.w3.org/TR/2001/REC-SVG-20010904/DTD/svg10.dtd">
<svg version="1.0" xmlns="http://www.w3.org/2000/svg"
 width="740.000000pt" height="740.000000pt" viewBox="0 0 740.000000 740.000000"
 preserveAspectRatio="xMidYMid meet">

<g transform="translate(0.000000,740.000000) scale(0.100000,-0.100000)"
fill="#000000" stroke="none">
<path d="M0 3700 l0 -3700 3700 0 3700 0 0 3700 0 3700 -3700 0 -3700 0 0
-3700z m4127 2772 c475 -87 847 -278 1136 -582 261 -274 430 -622 469 -965 7
-55 14 -102 17 -105 3 -3 6 -33 6 -67 l0 -62 -75 -3 -75 -3 -3 -307 -2 -308
39 0 c49 0 47 -7 59 247 5 101 11 185 13 188 3 2 20 -1 37 -7 l32 -12 0 -183
c0 -110 -4 -184 -10 -188 -6 -4 -11 20 -12 62 l-2 68 -3 -68 c-5 -87 -27 -88
-31 -1 -5 89 -22 92 -23 4 -1 -103 -8 -124 -44 -130 -17 -3 -40 -4 -52 -2 -23
4 -23 6 -25 201 -1 187 -2 191 -9 86 -4 -60 -8 -140 -9 -177 l-2 -68 -38 0
c-22 0 -43 6 -50 16 -27 32 -24 362 4 399 7 10 32 19 59 22 45 5 46 6 52 47 4
23 5 57 3 76 -3 35 -3 35 -50 34 l-48 -1 0 69 0 68 50 0 50 0 2 38 1 37 4 -37
c4 -35 7 -38 35 -38 l31 0 -6 59 c-4 33 -9 79 -12 103 -10 79 5 24 18 -67 12
-88 13 -90 41 -93 l29 -4 -7 73 c-33 360 -224 750 -502 1025 -360 357 -858
556 -1430 571 -382 10 -698 -47 -1006 -182 -542 -238 -935 -737 -1039 -1320
-9 -55 -18 -85 -18 -67 -2 94 73 357 148 517 126 268 339 524 582 698 201 143
501 270 768 323 191 37 264 43 536 39 200 -2 273 -7 362 -23z m-89 -57 c57 -8
155 -26 219 -41 561 -126 1016 -476 1257 -968 49 -100 126 -322 125 -359 0
-12 -11 16 -24 63 -54 196 -152 396 -277 565 -262 355 -640 590 -1115 694
-200 44 -304 54 -518 54 -357 -2 -692 -76 -976 -219 -95 -47 -261 -161 -354
-242 -270 -236 -479 -599 -545 -950 -12 -59 -25 -125 -30 -147 -17 -77 0 51
22 160 96 492 438 946 888 1179 237 122 501 196 807 226 117 11 393 4 521 -15z
m-485 -62 c-7 -2 -19 -2 -25 0 -7 3 -2 5 12 5 14 0 19 -2 13 -5z m-176 -19
c-3 -3 -12 -4 -19 -1 -8 3 -5 6 6 6 11 1 17 -2 13 -5z m-50 -10 c-3 -3 -12 -4
-19 -1 -8 3 -5 6 6 6 11 1 17 -2 13 -5z m-677 -238 c0 -2 -18 -15 -40 -30 -22
-14 -40 -24 -40 -22 0 5 71 56 77 56 2 0 3 -2 3 -4z m-90 -60 c0 -2 -8 -10
-17 -17 -16 -13 -17 -12 -4 4 13 16 21 21 21 13z m1301 -31 c24 -9 61 -29 81
-45 43 -35 45 -35 88 -14 70 35 250 -21 291 -91 19 -32 95 -74 164 -91 50 -12
124 -53 169 -94 23 -21 90 -62 150 -90 83 -40 122 -66 165 -109 89 -89 161
-246 161 -352 0 -44 2 -47 30 -53 73 -14 113 -115 92 -235 -6 -37 -20 -87 -30
-110 -17 -41 -17 -46 0 -110 13 -50 17 -108 17 -236 1 -93 -2 -179 -5 -191 -5
-19 -9 -17 -47 20 -28 27 -41 47 -38 60 3 14 1 17 -10 11 -12 -7 -12 -6 -1 8
10 12 13 50 11 149 l-3 134 -97 -101 c-57 -59 -122 -115 -156 -135 -50 -29
-62 -43 -82 -87 -25 -56 -99 -133 -128 -133 -11 1 -6 6 13 14 17 7 44 31 61
52 32 41 67 103 61 109 -2 2 -35 -5 -73 -16 -77 -22 -221 -28 -465 -19 -124 4
-139 2 -180 -18 -99 -48 -135 -88 -202 -222 -52 -103 -74 -137 -130 -192 -114
-112 -212 -144 -389 -127 -52 5 -161 13 -244 19 -153 9 -309 39 -413 78 l-52
20 -1 -21 c-1 -21 -1 -21 -7 1 -6 18 -39 38 -153 91 -170 79 -208 101 -268
156 -86 79 -114 201 -73 321 16 45 16 56 5 90 -36 103 -32 395 7 480 12 27 31
87 41 134 11 47 31 109 46 138 31 61 98 132 158 168 36 21 44 31 49 66 13 82
68 132 158 144 42 6 45 8 56 48 19 71 77 115 217 165 66 23 145 47 175 53 32
5 65 19 80 33 14 12 36 28 50 36 32 17 141 16 207 -1 52 -13 54 -13 80 11 46
41 60 50 120 75 69 28 177 32 244 9z m-1341 1 c0 -2 -8 -10 -17 -17 -16 -13
-17 -12 -4 4 13 16 21 21 21 13z m2441 -23 c13 -16 12 -17 -3 -4 -10 7 -18 15
-18 17 0 8 8 3 21 -13z m-2481 -6 c0 -2 -17 -19 -37 -38 l-38 -34 34 38 c33
34 41 42 41 34z m2531 -34 c13 -16 12 -17 -3 -4 -10 7 -18 15 -18 17 0 8 8 3
21 -13z m119 -110 l75 -78 -77 75 c-43 41 -78 76 -78 77 0 8 11 -3 80 -74z
m-2760 44 c0 -2 -10 -12 -22 -23 l-23 -19 19 23 c18 21 26 27 26 19z m50 -51
c0 -2 -8 -10 -17 -17 -16 -13 -17 -12 -4 4 13 16 21 21 21 13z m-137 -49 c-16
-17 -49 -58 -73 -89 -23 -32 -45 -58 -47 -58 -3 0 9 19 26 43 51 69 116 145
120 141 3 -3 -9 -19 -26 -37z m2818 -4 c13 -16 12 -17 -3 -4 -10 7 -18 15 -18
17 0 8 8 3 21 -13z m124 -43 c10 -11 16 -20 13 -20 -3 0 -13 9 -23 20 -10 11
-16 20 -13 20 3 0 13 -9 23 -20z m36 -47 c13 -16 12 -17 -3 -4 -10 7 -18 15
-18 17 0 8 8 3 21 -13z m30 -40 c13 -16 12 -17 -3 -4 -10 7 -18 15 -18 17 0 8
8 3 21 -13z m-3167 -80 c-21 -32 -64 -112 -96 -178 -33 -66 -56 -109 -52 -95
17 63 163 330 179 330 3 0 -11 -26 -31 -57z m3219 8 c27 -46 14 -38 -18 12
-16 23 -22 37 -14 30 8 -6 22 -25 32 -42z m37 -61 c6 -11 8 -20 6 -20 -3 0
-10 9 -16 20 -6 11 -8 20 -6 20 3 0 10 -9 16 -20z m61 -111 c22 -45 39 -83 37
-85 -2 -2 -23 35 -46 81 -23 47 -40 85 -37 85 3 0 23 -36 46 -81z m59 -134 c0
-5 -5 -3 -10 5 -5 8 -10 20 -10 25 0 6 5 3 10 -5 5 -8 10 -19 10 -25z m-3554
-81 c-14 -38 -25 -64 -25 -58 -1 15 40 136 45 131 2 -2 -7 -35 -20 -73z m3583
4 c12 -34 21 -67 20 -72 0 -6 -8 12 -18 39 -27 76 -33 95 -28 95 3 0 15 -28
26 -62z m-3615 -117 c-4 -17 -9 -30 -11 -27 -3 2 -2 19 2 36 9 41 17 33 9 -9z
m3643 7 c-3 -8 -6 -5 -6 6 -1 11 2 17 5 13 3 -3 4 -12 1 -19z m31 -143 c0 -16
-6 -1 -13 35 -8 36 -14 72 -13 80 1 27 26 -84 26 -115z m-3691 63 c-3 -7 -5
-2 -5 12 0 14 2 19 5 13 2 -7 2 -19 0 -25z m-10 -55 c-3 -10 -5 -4 -5 12 0 17
2 24 5 18 2 -7 2 -21 0 -30z m-7 -63 c0 -22 -3 -40 -8 -40 -4 0 -6 18 -4 40 2
22 6 40 8 40 2 0 4 -18 4 -40z m-153 -37 c-3 -10 -5 -2 -5 17 0 19 2 27 5 18
2 -10 2 -26 0 -35z m3800 15 c-3 -8 -6 -5 -6 6 -1 11 2 17 5 13 3 -3 4 -12 1
-19z m-3638 -313 c64 -11 74 -24 82 -106 4 -41 8 -124 8 -184 1 -134 -8 -155
-71 -155 -37 0 -39 2 -27 17 10 11 10 14 2 9 -10 -5 -13 10 -14 66 -1 40 -5
98 -9 128 -7 41 -8 20 -6 -85 3 -169 2 -175 -30 -175 -17 0 -24 -5 -24 -20 0
-26 46 -28 53 -2 3 9 5 -7 6 -35 1 -36 -3 -53 -11 -54 -9 0 -9 -2 1 -6 11 -5
11 -7 0 -14 -12 -7 -14 -165 -17 -927 -3 -844 -2 -921 14 -936 15 -15 61 -16
503 -14 542 4 539 4 607 72 66 65 77 129 84 476 l7 285 -2 -330 c-2 -318 -5
-376 -26 -401 -5 -6 -5 -14 -1 -18 4 -4 0 -13 -9 -19 -9 -7 -16 -20 -16 -29 0
-14 3 -15 14 -7 24 21 54 79 47 91 -4 7 -3 9 1 5 5 -4 17 7 27 25 9 18 17 27
18 20 0 -14 -56 -118 -79 -145 -9 -11 -16 -24 -16 -30 -1 -25 -26 -96 -35
-102 -6 -3 -10 -15 -10 -26 0 -11 -4 -17 -10 -14 -5 3 -10 -1 -10 -9 0 -22
-62 -136 -71 -130 -4 2 -11 -1 -15 -7 -4 -8 -3 -9 4 -5 7 4 12 3 12 -1 0 -13
-65 -74 -72 -68 -3 4 -9 1 -14 -6 -5 -8 -3 -10 7 -4 8 4 1 -4 -16 -18 -16 -14
-38 -33 -47 -41 -10 -9 -18 -13 -18 -9 0 3 -11 -4 -25 -17 -14 -13 -25 -20
-25 -16 0 4 -19 -7 -42 -25 -66 -50 -78 -56 -28 -13 143 123 263 281 336 439
29 65 31 75 16 76 -15 1 -15 2 -1 6 17 4 44 52 35 61 -5 4 -31 -15 -86 -61
-11 -9 -138 -13 -525 -15 -484 -3 -512 -2 -528 15 -15 17 -16 99 -19 933 -2
579 -7 921 -13 930 -12 19 -12 19 -14 84 -1 48 -4 55 -23 58 -28 4 -36 31 -37
126 -1 46 -5 71 -11 67 -5 -3 -10 -35 -10 -71 0 -61 -1 -64 -23 -64 -23 0 -24
4 -30 98 -4 53 -7 138 -7 188 0 87 1 92 23 98 55 15 54 18 61 -151 4 -87 9
-183 13 -214 l5 -57 44 0 44 -1 2 312 c1 172 4 277 5 235 l4 -76 38 -7z m2381
-344 c-96 -5 -120 -10 -145 -28 -44 -31 -70 -62 -98 -115 -14 -26 -28 -44 -32
-40 -5 4 -5 -1 -2 -11 4 -10 3 -16 -2 -13 -5 3 -14 -8 -21 -24 -7 -17 -15 -29
-17 -27 -7 8 49 137 77 176 17 22 50 49 81 65 48 24 62 26 163 24 l111 -2
-115 -5z m208 -8 c-10 -2 -26 -2 -35 0 -10 3 -2 5 17 5 19 0 27 -2 18 -5z
m704 -41 l47 -17 -24 -60 c-29 -72 -64 -106 -108 -105 -18 0 -43 -1 -57 -3
-26 -4 -38 11 -39 50 -1 17 6 22 39 28 22 4 40 12 41 18 1 7 2 21 3 32 1 11 3
32 4 48 2 32 22 34 94 9z m-525 -48 c-3 -3 -12 -4 -19 -1 -8 3 -5 6 6 6 11 1
17 -2 13 -5z m-64 -15 c-18 -5 -47 -28 -68 -53 -44 -54 -95 -76 -175 -76 -81
0 -101 -12 -142 -83 -24 -41 -107 -136 -243 -276 -113 -118 -214 -228 -223
-245 -15 -28 -17 -98 -20 -758 l-3 -728 26 0 c31 0 33 -17 3 -22 -23 -3 -23
-4 -28 -223 -3 -121 -7 -218 -9 -215 -2 3 -7 102 -10 220 l-6 215 -47 3 -48 3
-2 -133 -2 -133 -3 133 c-3 108 -6 132 -18 132 -12 0 -15 -21 -17 -112 l-2
-113 -5 120 c-5 83 -11 129 -23 150 -9 17 -52 61 -96 99 -120 104 -122 109
-122 319 0 97 4 186 9 200 5 13 29 41 52 63 81 74 98 95 102 127 l4 32 1 -35
c2 -31 -6 -42 -67 -100 -38 -36 -74 -78 -80 -93 -17 -45 -14 -362 4 -396 8
-16 54 -65 104 -110 49 -45 94 -95 101 -111 8 -18 20 -30 31 -30 18 0 19 12
21 208 l3 207 2 -208 3 -208 48 3 47 3 5 735 c5 687 6 737 23 768 10 19 114
131 231 250 144 147 224 236 246 275 37 66 56 77 138 77 86 0 125 15 168 63
43 48 71 67 99 66 12 -1 8 -4 -12 -10z m1013 -69 c23 0 25 -3 23 -45 -2 -25
-6 -45 -11 -45 -4 0 -8 -20 -8 -45 0 -25 -4 -45 -10 -45 -7 0 -10 -301 -10
-884 l0 -885 -22 -15 c-20 -14 -89 -16 -583 -14 l-560 3 568 5 c490 4 569 7
577 20 14 21 13 1857 0 1865 -5 3 -10 32 -10 63 1 44 3 53 11 40 5 -10 21 -18
35 -18z m-666 -164 c13 -9 30 -16 37 -16 20 0 15 28 -6 35 -10 3 -26 14 -36
25 -18 20 -17 20 26 20 l44 0 2 -180 c2 -136 -1 -190 -12 -221 -19 -53 -19
-84 1 -103 20 -20 57 -20 100 0 27 13 39 14 69 4 47 -16 68 0 40 30 -37 41
-120 35 -182 -13 l-28 -22 16 25 c8 14 45 45 82 69 64 42 82 70 57 86 -15 9
-12 72 5 106 9 16 13 34 10 38 -3 5 0 11 5 13 18 6 -17 99 -50 133 l-32 33 31
10 30 10 11 -51 c22 -105 71 -259 100 -317 17 -33 30 -75 30 -93 0 -57 -62
-97 -152 -97 -20 0 -43 -3 -52 -6 -21 -8 -21 -71 0 -124 15 -37 15 -42 0 -65
-27 -42 -56 -54 -138 -56 -43 -2 -78 -6 -78 -9 0 -3 35 -27 78 -53 l77 -47 6
30 c9 42 17 47 24 17 11 -43 -2 -66 -43 -72 -59 -10 -91 -25 -117 -57 -21 -25
-24 -37 -23 -106 2 -95 -22 -156 -77 -198 -32 -24 -49 -29 -109 -32 -83 -5
-157 12 -281 64 -55 23 -84 41 -81 49 2 7 -23 31 -60 55 -35 23 -67 48 -71 54
-4 6 1 5 11 -3 15 -12 19 -12 26 -1 10 16 2 40 -13 40 -6 0 -8 3 -4 6 3 3 50
-22 104 -57 249 -158 281 -174 377 -185 50 -6 54 -5 52 12 -2 11 1 25 7 32 5
7 6 12 0 12 -5 0 -8 15 -6 33 1 17 5 95 8 172 3 77 12 181 20 230 24 152 46
405 40 458 -12 94 -13 305 -2 317 10 10 9 11 -3 5 -13 -8 -13 -6 -1 8 7 9 11
23 8 31 -12 31 9 24 52 -17 25 -24 57 -51 71 -61z m-950 -9 c0 -1 -46 -47
-102 -102 l-103 -100 100 103 c93 95 105 107 105 99z m-1701 -25 c37 -20 71
-73 71 -110 0 -40 -28 -91 -62 -112 -52 -33 -122 -23 -165 24 -28 30 -33 43
-33 85 0 103 98 162 189 113z m2136 -22 c0 -18 -6 -26 -23 -28 -13 -2 -25 3
-28 12 -10 26 4 48 28 44 17 -2 23 -10 23 -28z m275 -166 c11 -12 11 -18 -2
-30 -18 -18 -48 -8 -48 15 0 33 28 42 50 15z m-950 -37 c0 -2 -17 -19 -37 -38
l-38 -34 34 38 c33 34 41 42 41 34z m-1653 -57 c5 -19 16 -20 337 -23 l331 -2
-342 -3 c-299 -2 -343 0 -343 13 0 12 -16 15 -85 15 -50 0 -85 4 -85 10 0 6
37 10 91 10 82 0 91 -2 96 -20z m678 10 c64 -10 206 -76 213 -99 3 -8 -9 -4
-29 11 -37 28 -85 52 -139 70 -22 7 -157 14 -355 18 l-320 6 285 2 c157 1 312
-2 345 -8z m540 -30 c0 -20 -6 -26 -26 -28 -30 -4 -46 22 -28 45 20 23 54 12
54 -17z m-511 -8 c2 -4 -4 -9 -15 -9 -11 -1 -17 2 -14 8 7 11 22 12 29 1z
m848 -31 c-15 -21 -29 -37 -31 -35 -4 4 47 74 54 74 3 0 -8 -18 -23 -39z
m-1260 2 c-51 -2 -132 -2 -180 0 -48 1 -6 3 93 3 99 0 138 -2 87 -3z m155 1
c-3 -3 -12 -4 -19 -1 -8 3 -5 6 6 6 11 1 17 -2 13 -5z m191 -32 c13 -4 -116
-6 -286 -4 -341 4 -382 -1 -406 -46 -9 -15 -15 -22 -16 -17 0 22 32 55 63 64
36 10 609 13 645 3z m222 -22 c0 -5 -2 -10 -4 -10 -3 0 -8 5 -11 10 -3 6 -1
10 4 10 6 0 11 -4 11 -10z m117 -60 c32 -35 85 -134 97 -180 3 -14 -8 4 -25
40 -17 36 -58 99 -92 140 -58 72 -47 72 20 0z m534 29 c-5 -13 -10 -19 -10
-12 -1 15 10 45 15 40 3 -2 0 -15 -5 -28z m-750 4 c13 -17 13 -17 -6 -3 -11 8
-22 16 -24 17 -2 2 0 3 6 3 6 0 17 -8 24 -17z m144 -53 c10 -11 16 -20 13 -20
-3 0 -13 9 -23 20 -10 11 -16 20 -13 20 3 0 13 -9 23 -20z m-968 -97 c-2 -21
-4 -4 -4 37 0 41 2 58 4 38 2 -21 2 -55 0 -75z m1560 -596 c-1 -128 -2 -20 -2
238 0 259 1 363 2 232 2 -131 2 -343 0 -470z m-561 571 c34 -67 29 -73 -7 -8
-16 30 -40 66 -52 80 l-22 25 28 -25 c16 -14 40 -46 53 -72z m83 13 c40 -95
51 -159 49 -296 l-1 -130 -7 155 c-7 157 -24 234 -65 297 -9 13 -11 23 -6 23
4 0 18 -22 30 -49z m-33 -16 c14 -34 18 -52 9 -44 -9 9 -35 79 -30 79 3 0 13
-16 21 -35z m-160 -9 c147 -68 178 -255 60 -366 -46 -44 -85 -58 -160 -59 -50
-1 -69 5 -121 34 -34 19 -66 31 -70 27 -4 -4 -4 3 -1 16 5 13 3 22 -3 22 -6 0
-10 3 -10 8 1 4 1 18 0 32 l-1 24 -16 -22 c-41 -59 -121 -63 -174 -10 -24 24
-30 38 -30 75 0 38 5 50 34 79 31 31 39 34 94 34 34 0 64 -4 67 -10 11 -17 19
-11 43 30 57 100 179 137 288 86z m-371 -16 c19 -8 19 -9 -2 -9 -18 -1 -22 -6
-21 -27 2 -19 7 -24 20 -21 10 3 18 1 18 -4 0 -5 -17 -9 -37 -9 -75 0 -153
-66 -153 -129 0 -73 72 -136 147 -128 29 3 46 0 54 -9 8 -10 15 -11 24 -4 9 8
14 6 19 -5 3 -9 11 -13 17 -9 8 5 9 3 4 -5 -14 -24 -89 -51 -141 -51 -70 0
-130 33 -171 94 -28 41 -33 57 -33 109 0 103 46 170 139 203 41 15 87 16 116
4z m632 -72 c-3 -8 -6 -5 -6 6 -1 11 2 17 5 13 3 -3 4 -12 1 -19z m-70 -10
c-3 -8 -6 -5 -6 6 -1 11 2 17 5 13 3 -3 4 -12 1 -19z m-40 -20 c-3 -7 -5 -2
-5 12 0 14 2 19 5 13 2 -7 2 -19 0 -25z m120 -250 c-1 -51 -3 -12 -3 87 0 99
2 141 3 93 2 -48 2 -129 0 -180z m320 -25 c-1 -54 -3 -10 -3 97 0 107 2 151 3
98 2 -54 2 -142 0 -195z m-390 170 c-2 -21 -4 -4 -4 37 0 41 2 58 4 38 2 -21
2 -55 0 -75z m-35 -15 c2 -31 0 -54 -4 -51 -5 2 -7 39 -7 81 2 80 6 68 11 -30z
m273 42 c0 -18 -6 -26 -23 -28 -13 -2 -25 3 -28 12 -10 26 4 48 28 44 17 -2
23 -10 23 -28z m192 -212 c-2 -35 -3 -7 -3 62 0 69 1 97 3 63 2 -35 2 -91 0
-125z m773 161 c-202 -9 -271 -35 -358 -134 -72 -82 -85 -131 -93 -355 l-6
-195 1 200 c2 233 13 277 93 365 92 102 172 129 378 128 l140 -1 -155 -8z
m-1718 -66 c-6 -2 -10 -9 -6 -14 3 -5 -2 -9 -12 -9 -13 0 -14 3 -4 15 7 8 18
15 24 14 7 0 6 -2 -2 -6z m2768 -83 c0 -21 -24 -28 -35 -10 -8 14 3 30 21 30
8 0 14 -9 14 -20z m-1112 -222 c-22 -51 -55 -138 -74 -193 -19 -55 -32 -84
-28 -65 14 82 120 350 138 350 3 0 -14 -42 -36 -92z m-1790 25 c13 -26 4 -43
-24 -43 -26 0 -40 20 -30 45 8 21 43 19 54 -2z m477 -149 c-11 -77 3 -74 -450
-72 l-400 3 402 5 c461 6 433 0 442 97 3 32 7 47 9 34 2 -13 1 -44 -3 -67z
m-894 -51 c13 -16 12 -17 -3 -4 -10 7 -18 15 -18 17 0 8 8 3 21 -13z m3186 -9
c8 -21 -13 -42 -28 -27 -13 13 -5 43 11 43 6 0 13 -7 17 -16z m-757 -43 c0
-10 -26 -9 -36 2 -4 4 2 7 14 7 12 0 22 -4 22 -9z m-1940 -89 c0 -13 -12 -22
-22 -16 -10 6 -1 24 13 24 5 0 9 -4 9 -8z m1978 -25 c4 -20 -25 -34 -40 -19
-15 15 -1 44 19 40 10 -2 19 -11 21 -21z m-1421 -9 c-3 -8 -6 -5 -6 6 -1 11 2
17 5 13 3 -3 4 -12 1 -19z m1220 -80 c-3 -8 -6 -5 -6 6 -1 11 2 17 5 13 3 -3
4 -12 1 -19z m34 -85 c13 -16 12 -17 -3 -4 -17 13 -22 21 -14 21 2 0 10 -8 17
-17z m50 -31 c-7 -2 -18 1 -23 6 -8 8 -4 9 13 5 13 -4 18 -8 10 -11z m-515
-198 c0 -1 -25 -4 -53 -7 -44 -5 -53 -3 -53 10 0 13 8 14 40 9 25 -4 40 -2 40
4 0 6 6 6 14 -2 8 -7 13 -13 12 -14z m-1793 -128 c3 -8 0 -22 -7 -32 -18 -24
-46 -11 -46 21 0 20 5 25 24 25 13 0 26 -6 29 -14z m2925 -12 c3 -23 -18 -37
-43 -28 -16 6 -20 35 -8 48 14 14 48 1 51 -20z m-1478 -130 c0 -9 -16 -32 -37
-52 -20 -21 -42 -50 -49 -67 -12 -28 -13 -28 -14 -6 0 15 16 39 45 68 25 24
45 50 45 58 0 8 2 15 5 15 3 0 5 -7 5 -16z m-103 -221 c-2 -16 -4 -5 -4 22 0
28 2 40 4 28 2 -13 2 -35 0 -50z m-427 37 c0 -11 -7 -20 -15 -20 -15 0 -21 21
-8 33 12 13 23 7 23 -13z"/>
<path d="M5504 4196 c-3 -8 -4 -27 -2 -43 3 -23 5 -20 9 15 5 43 2 53 -7 28z"/>
<path d="M4000 5907 c0 -2 14 -16 31 -33 26 -24 30 -25 20 -7 -10 19 -51 51
-51 40z"/>
<path d="M4094 5745 c3 -11 6 -23 6 -26 0 -4 18 3 41 14 54 26 89 16 105 -32
l11 -34 16 24 c10 13 17 27 17 31 0 17 -60 36 -128 40 -70 4 -73 3 -68 -17z"/>
<path d="M3862 5715 c-9 -20 -9 -25 3 -25 19 0 28 17 17 35 -7 13 -10 12 -20
-10z"/>
<path d="M3300 5666 c39 -27 45 -26 35 3 -5 15 -15 21 -38 21 l-31 0 34 -24z"/>
<path d="M3604 5631 c16 -27 21 -53 21 -106 0 -38 -4 -81 -9 -95 l-9 -25 23
20 c49 44 204 11 245 -52 17 -25 22 -95 10 -132 -4 -14 1 -18 24 -18 44 0 61
-19 61 -68 0 -35 -5 -48 -26 -64 -48 -38 -95 -46 -188 -31 -87 13 -170 10
-188 -8 -7 -7 15 -9 69 -5 93 7 139 -5 189 -50 71 -62 91 -138 70 -269 -19
-118 -49 -158 -128 -173 -30 -6 -35 -3 -46 20 -7 14 -12 34 -12 45 0 13 -5 17
-20 13 -19 -5 -18 -6 5 -41 29 -43 30 -53 9 -98 -26 -54 -59 -66 -177 -62
l-101 3 -38 -70 c-50 -90 -76 -116 -118 -117 -24 -1 -39 6 -56 25 -27 32 -38
34 -29 7 6 -18 2 -20 -37 -21 -24 0 -63 -4 -88 -8 l-45 -8 60 -2 c58 -1 171
-16 208 -27 39 -12 1 -70 -68 -103 l-40 -19 45 1 c31 1 68 -8 113 -27 55 -23
75 -27 112 -22 60 9 68 26 12 26 -87 0 -139 66 -123 155 7 37 82 142 116 163
13 8 43 13 69 13 93 -1 140 10 193 46 82 57 149 83 250 97 l93 12 -55 17 c-80
24 -100 41 -100 85 0 67 59 131 122 133 17 0 12 4 -17 15 -57 20 -85 56 -85
107 1 84 62 166 154 208 29 13 35 19 20 19 -36 0 -72 36 -67 65 8 38 112 129
166 145 105 29 183 -31 170 -130 -4 -31 -3 -41 5 -36 19 11 14 97 -7 131 -35
56 -59 73 -108 80 -97 12 -148 57 -141 125 l3 37 -25 -15 c-14 -9 -35 -24 -48
-33 l-22 -17 42 -24 c76 -42 77 -108 2 -188 -52 -56 -82 -67 -124 -45 -34 18
-32 13 -35 82 -2 60 -13 77 -69 105 -64 32 -84 56 -98 117 l-12 56 -6 -50 c-3
-27 -9 -56 -13 -62 -23 -36 -43 4 -55 105 -7 64 -8 66 -38 73 l-32 6 22 -36z"/>
<path d="M4213 5625 c-13 -15 -17 -25 -9 -25 7 0 18 11 24 25 14 31 13 31 -15
0z"/>
<path d="M3067 5505 c54 -71 66 -103 60 -162 -3 -29 -2 -53 2 -53 4 0 27 15
51 33 40 29 42 32 22 35 -15 2 -32 21 -52 55 -34 59 -38 91 -12 106 16 10 16
10 -1 11 -9 0 -26 -5 -37 -12 -16 -10 -23 -9 -42 7 -16 14 -13 8 9 -20z"/>
<path d="M3401 5448 c-1 -20 8 -32 33 -47 45 -28 66 -62 66 -106 0 -42 -12
-68 -49 -110 -26 -30 -26 -30 -1 -9 43 36 129 84 153 85 17 1 14 4 -15 17 -44
20 -45 24 -19 76 18 34 18 36 2 22 -32 -29 -75 -20 -112 22 -19 21 -39 47 -46
58 -11 18 -12 17 -12 -8z"/>
<path d="M4648 5437 c-26 -14 -38 -27 -37 -41 0 -20 1 -20 9 2 12 29 36 38 71
25 32 -12 35 -7 15 20 -16 20 -12 21 -58 -6z"/>
<path d="M2870 5367 c-19 -18 -48 -42 -65 -55 -25 -18 -17 -16 45 10 41 18 76
32 77 33 5 2 -10 45 -16 45 -3 0 -22 -15 -41 -33z"/>
<path d="M4581 5267 c-1 -27 -36 -89 -65 -117 -34 -31 -102 -32 -127 -1 -16
19 -17 18 -21 -35 -5 -59 -29 -102 -66 -119 -26 -12 -29 -25 -5 -25 9 0 68
-26 131 -57 79 -40 125 -70 150 -98 19 -22 32 -35 28 -28 -10 18 39 50 97 63
28 7 64 19 79 26 37 19 95 17 143 -5 49 -22 73 -48 91 -98 l13 -38 1 39 c0 23
-7 47 -17 58 -13 15 -14 24 -6 52 10 33 10 33 -13 21 -30 -15 -68 -9 -91 17
-13 14 -19 43 -23 106 l-5 87 -7 -56 c-8 -60 -41 -143 -61 -156 -7 -4 -7 0 2
10 13 16 12 17 -11 8 -47 -18 -221 -43 -261 -38 -86 12 -147 83 -125 148 11
32 84 74 156 90 29 6 52 14 51 17 -1 24 -37 144 -38 129z"/>
<path d="M4887 5263 c-9 -11 -13 -28 -10 -43 l5 -26 33 31 c23 21 30 34 23 43
-14 17 -32 15 -51 -5z"/>
<path d="M2535 5211 l-40 -44 35 18 c19 10 49 21 66 24 l31 6 -26 20 -26 21
-40 -45z"/>
<path d="M3391 5136 c-24 -26 -108 -50 -135 -40 -9 3 -44 -11 -78 -33 -50 -30
-73 -38 -110 -38 -43 0 -47 -2 -42 -21 4 -16 -9 -34 -55 -77 -65 -59 -106 -77
-179 -77 -37 0 -50 6 -78 34 -19 19 -34 41 -34 50 0 12 -9 14 -42 12 -24 -2
-46 1 -50 7 -3 6 -23 -4 -48 -26 -49 -41 -119 -62 -191 -55 -47 5 -51 3 -64
-23 -21 -39 -19 -42 13 -26 17 9 81 17 172 21 138 7 147 6 172 -13 18 -14 41
-21 73 -21 54 0 95 -19 124 -57 l20 -28 1 25 c0 43 34 83 126 153 156 119 285
166 327 120 22 -25 57 -110 57 -138 0 -38 -40 -76 -95 -90 -49 -13 -49 -14
-14 -14 20 -1 64 -15 97 -32 68 -34 99 -74 122 -162 18 -67 27 -66 22 4 -3 43
0 65 12 84 9 13 16 26 16 28 0 2 -26 10 -57 17 -78 17 -133 46 -133 69 0 28
47 69 89 76 22 3 76 -1 125 -10 48 -9 90 -15 92 -12 2 2 -43 18 -99 35 -121
37 -149 56 -172 117 -20 52 -15 85 21 133 30 38 27 42 -5 8z"/>
<path d="M2932 5084 c-11 -12 -9 -14 8 -14 11 0 20 4 20 9 0 17 -15 19 -28 5z"/>
<path d="M2314 5039 c-7 -12 12 -29 32 -29 19 0 24 28 8 34 -23 9 -32 7 -40
-5z"/>
<path d="M4116 5005 c4 -8 16 -15 28 -15 21 1 21 1 2 15 -25 19 -37 19 -30 0z"/>
<path d="M3668 4833 c7 -3 16 -2 19 1 4 3 -2 6 -13 5 -11 0 -14 -3 -6 -6z"/>
<path d="M4289 4685 c-19 -39 -23 -57 -16 -70 13 -25 0 -93 -28 -141 -13 -22
-48 -59 -77 -81 -89 -69 -265 -172 -323 -191 -41 -13 -55 -22 -55 -36 0 -44
-136 -241 -192 -278 -40 -28 -94 -47 -133 -49 -11 0 -29 -5 -40 -10 -14 -6 9
-8 70 -6 132 4 150 18 263 202 64 106 123 172 141 160 6 -3 10 -1 9 5 -2 7 21
28 51 47 29 20 51 31 47 25 -3 -6 4 -9 18 -8 13 0 22 5 18 10 -3 5 2 7 11 3 9
-3 17 -1 19 5 2 6 15 12 28 13 40 4 41 5 36 13 -3 5 11 9 31 10 45 2 58 12 15
12 -17 0 -33 3 -35 8 -3 4 27 6 66 6 l72 -2 -55 8 c-35 5 -1 6 90 3 280 -9
463 32 596 134 33 25 94 107 94 127 0 6 -12 -7 -26 -27 -49 -73 -179 -141
-325 -170 -98 -20 -359 -42 -393 -33 -24 6 -27 11 -22 32 12 46 56 105 101
133 25 16 89 43 142 61 120 39 188 41 273 6 l60 -24 0 32 0 31 -98 0 c-88 0
-100 3 -120 23 -19 19 -26 21 -44 11 -39 -21 -138 -7 -194 27 l-49 31 -26 -52z"/>
<path d="M3126 4606 c31 -31 34 -39 35 -97 l0 -64 24 53 c17 36 32 55 52 63
l28 10 -52 19 c-29 10 -62 25 -75 34 -40 28 -47 17 -12 -18z"/>
<path d="M2605 4520 c-97 -36 -268 -109 -275 -117 -4 -4 -11 -28 -14 -53 l-6
-45 16 37 c13 31 24 40 58 50 22 7 68 27 101 45 64 34 183 67 209 57 37 -14 4
-78 -89 -174 -29 -30 -56 -65 -60 -78 -19 -63 29 -153 99 -189 l31 -16 -27 27
c-31 31 -53 112 -44 159 6 33 51 85 93 106 12 6 37 11 55 11 l33 1 -27 14
c-35 20 -43 47 -23 85 21 41 56 53 140 46 l70 -6 -39 15 c-21 8 -44 19 -50 24
-7 6 -27 5 -53 -2 -33 -9 -49 -7 -85 6 -53 21 -51 21 -113 -3z"/>
<path d="M4258 4313 c7 -3 16 -2 19 1 4 3 -2 6 -13 5 -11 0 -14 -3 -6 -6z"/>
<path d="M4378 4273 c7 -3 16 -2 19 1 4 3 -2 6 -13 5 -11 0 -14 -3 -6 -6z"/>
<path d="M4433 4273 c9 -2 23 -2 30 0 6 3 -1 5 -18 5 -16 0 -22 -2 -12 -5z"/>
<path d="M3972 4229 c-19 -7 -23 -29 -6 -29 3 0 2 5 -2 12 -5 7 -2 9 9 5 9 -3
18 0 21 9 3 8 4 14 3 13 -1 0 -12 -4 -25 -10z"/>
<path d="M3570 4180 l-25 -6 26 -6 c15 -2 38 1 50 8 l24 13 -25 -1 c-14 -1
-36 -5 -50 -8z"/>
<path d="M3090 4060 c-117 -49 -189 -70 -234 -70 -27 0 -47 -2 -45 -4 5 -5
190 -36 213 -36 8 0 27 22 41 49 16 29 39 54 58 64 43 21 22 19 -33 -3z"/>
<path d="M2304 3988 c-4 -7 -3 -10 1 -5 5 4 20 -3 34 -15 l26 -23 -24 28 c-28
31 -28 31 -37 15z"/>
<path d="M2798 3813 c7 -3 16 -2 19 1 4 3 -2 6 -13 5 -11 0 -14 -3 -6 -6z"/>
<path d="M2858 3803 c7 -3 16 -2 19 1 4 3 -2 6 -13 5 -11 0 -14 -3 -6 -6z"/>
<path d="M2903 3793 c9 -2 23 -2 30 0 6 3 -1 5 -18 5 -16 0 -22 -2 -12 -5z"/>
<path d="M2990 3770 c-9 -6 -10 -10 -3 -10 6 0 15 5 18 10 8 12 4 12 -15 0z"/>
<path d="M3035 3760 c11 -5 27 -9 35 -9 9 0 8 4 -5 9 -11 5 -27 9 -35 9 -9 0
-8 -4 5 -9z"/>
<path d="M1923 4185 c0 -33 2 -45 4 -27 2 18 2 45 0 60 -2 15 -4 0 -4 -33z"/>
<path d="M1910 4116 c0 -2 7 -7 16 -10 8 -3 12 -2 9 4 -6 10 -25 14 -25 6z"/>
<path d="M5570 3946 c0 -9 40 -13 46 -5 3 5 -6 9 -20 9 -14 0 -26 -2 -26 -4z"/>
<path d="M2203 3750 c-27 -11 -39 -53 -25 -83 10 -19 10 -18 6 9 -10 53 44 85
80 48 19 -18 20 -37 5 -67 -10 -21 -10 -21 5 -3 24 29 19 62 -10 85 -30 23
-30 23 -61 11z"/>
<path d="M2771 3113 c-48 -24 -78 -92 -62 -144 32 -106 175 -129 231 -37 42
70 17 154 -56 184 -43 18 -71 17 -113 -3z m131 -23 c85 -66 41 -200 -66 -200
-48 0 -80 19 -101 60 -25 49 -19 88 19 126 29 29 41 34 79 34 29 0 53 -7 69
-20z"/>
<path d="M2565 2847 c7 -17 42 -33 52 -23 4 3 0 6 -7 6 -7 0 -22 8 -32 17 -17
15 -18 15 -13 0z"/>
</g>
</svg>
